<svg width="28" height="28" fill="none" xmlns="http://www.w3.org/2000/svg"><path d="M14 1.4C7.041 1.4 1.4 7.041 1.4 14S7.041 26.6 14 26.6 26.6 20.959 26.6 14 20.959 1.4 14 1.4zm-3.084 17.822H8.364v-8.21h2.552v8.21zm-1.292-9.219c-.806 0-1.327-.57-1.327-1.277 0-.72.537-1.274 1.36-1.274.823 0 1.327.554 1.343 1.274 0 .706-.52 1.277-1.376 1.277zm10.61 9.22h-2.551v-4.551c0-1.06-.37-1.778-1.293-1.778-.705 0-1.123.486-1.309.955-.068.167-.085.403-.085.638v4.734h-2.553V13.63c0-1.025-.032-1.882-.066-2.62h2.216l.117 1.14h.051c.336-.535 1.16-1.325 2.536-1.325 1.679 0 2.937 1.125 2.937 3.543v4.854z" fill="#fff"/></svg>