<svg width="18" height="18" fill="none" xmlns="http://www.w3.org/2000/svg"><path d="M3.733 12.733c.351-.337.693-.683 1.025-1.038.279-.284.447-.49.447-.49l2.1-1.003A5.221 5.221 0 016 6.75a5.256 5.256 0 015.25-5.25 5.256 5.256 0 015.25 5.25A5.256 5.256 0 0111.25 12a5.225 5.225 0 01-3.452-1.304l-1.003 2.1s-.206.168-.49.447c-.29.272-.672.64-1.038 1.025L4.25 15.312l-.453.485-1.591-1.591.484-.453c.285-.28.664-.65 1.044-1.02zM11.25 10.5A3.754 3.754 0 0015 6.75 3.754 3.754 0 0011.25 3 3.754 3.754 0 007.5 6.75a3.754 3.754 0 003.75 3.75z" fill="#fff"/></svg>