<svg width="28" height="28" fill="none" xmlns="http://www.w3.org/2000/svg"><path d="M14 1.4C7.042 1.4 1.4 7.042 1.4 14c0 6.958 5.642 12.6 12.6 12.6 6.958 0 12.6-5.642 12.6-12.6 0-6.958-5.642-12.6-12.6-12.6zm6.055 9.498c.009.132.009.27.009.405 0 4.129-3.145 8.884-8.89 8.884a8.86 8.86 0 01-4.799-1.4c.253.028.495.04.754.04a6.267 6.267 0 003.879-1.334 3.124 3.124 0 01-2.92-2.165c.481.07.914.07 1.41-.057a3.121 3.121 0 01-2.501-3.065v-.04c.413.234.9.377 1.409.397a3.126 3.126 0 01-.968-4.174 8.867 8.867 0 006.441 3.265c-.441-2.123 1.145-3.842 3.052-3.842.9 0 1.71.377 2.28.985a6.171 6.171 0 001.983-.751 3.109 3.109 0 01-1.372 1.718 6.178 6.178 0 001.8-.486 6.548 6.548 0 01-1.567 1.62z" fill="#fff"/></svg>