<svg width="18" height="18" fill="none" xmlns="http://www.w3.org/2000/svg"><path d="M15.09 13.423a6.574 6.574 0 00-1.416-2.1 6.602 6.602 0 00-2.1-1.418c-.008-.003-.015-.005-.022-.009A4.359 4.359 0 104.64 6.363c0 1.454.713 2.742 1.808 3.535l-.021.009a6.546 6.546 0 00-2.101 1.417 6.603 6.603 0 00-1.935 4.528.14.14 0 00.14.144h1.055a.14.14 0 00.14-.137 5.24 5.24 0 011.544-3.591A5.238 5.238 0 019 10.723c1.41 0 2.733.548 3.73 1.545a5.24 5.24 0 011.543 3.591.14.14 0 00.141.137h1.055a.142.142 0 00.13-.09.139.139 0 00.01-.054 6.551 6.551 0 00-.518-2.43zM9 9.387A3.004 3.004 0 016.863 8.5a3.004 3.004 0 01-.886-2.138c0-.807.314-1.566.886-2.137A3.004 3.004 0 019 3.34c.807 0 1.566.314 2.137.886.572.571.886 1.33.886 2.137 0 .807-.314 1.566-.886 2.138A3.004 3.004 0 019 9.387z" fill="#fff"/></svg>